<svg width="21.000000" height="21.000000" viewBox="0 0 21 21" fill="none" xmlns="http://www.w3.org/2000/svg" xmlns:xlink="http://www.w3.org/1999/xlink">
	<path id="Vector" d="M5 -0.25C5.19 -0.25 5.38 -0.18 5.53 -0.04C5.67 0.11 5.75 0.3 5.75 0.5L5.75 1.26C6.41 1.25 7.14 1.25 7.94 1.25L12.05 1.25C12.85 1.25 13.58 1.25 14.25 1.26L14.25 0.5C14.25 0.3 14.32 0.11 14.46 -0.04C14.61 -0.18 14.8 -0.25 15 -0.25C15.19 -0.25 15.38 -0.18 15.53 -0.04C15.67 0.11 15.75 0.3 15.75 0.5L15.75 1.32C16.01 1.34 16.25 1.37 16.48 1.4C17.66 1.56 18.61 1.89 19.35 2.64C20.1 3.38 20.43 4.33 20.59 5.51C20.75 6.65 20.75 8.1 20.75 9.94L20.75 12.05C20.75 13.89 20.75 15.35 20.59 16.48C20.43 17.66 20.1 18.61 19.35 19.35C18.61 20.1 17.66 20.43 16.48 20.59C15.34 20.75 13.89 20.75 12.05 20.75L7.94 20.75C6.1 20.75 4.65 20.75 3.51 20.59C2.33 20.43 1.39 20.1 0.64 19.35C-0.11 18.61 -0.44 17.66 -0.6 16.48C-0.75 15.34 -0.75 13.89 -0.75 12.05L-0.75 9.94C-0.75 8.1 -0.75 6.64 -0.6 5.51C-0.44 4.33 -0.11 3.38 0.64 2.64C1.39 1.89 2.33 1.56 3.51 1.4C3.74 1.37 3.99 1.34 4.25 1.32L4.25 0.5C4.25 0.3 4.32 0.11 4.47 -0.04C4.61 -0.18 4.8 -0.25 5 -0.25ZM3.7 2.88C2.7 3.02 2.12 3.27 1.7 3.7C1.27 4.12 1.02 4.7 0.89 5.71C0.86 5.88 0.84 6.06 0.83 6.25L19.16 6.25C19.15 6.06 19.13 5.88 19.11 5.7C18.97 4.7 18.72 4.12 18.29 3.7C17.87 3.27 17.29 3.02 16.28 2.88C15.26 2.75 13.9 2.75 12 2.75L8 2.75C6.09 2.75 4.73 2.75 3.7 2.88ZM0.75 10C0.75 9.14 0.75 8.4 0.76 7.75L19.23 7.75C19.25 8.4 19.25 9.14 19.25 10L19.25 12C19.25 13.9 19.24 15.26 19.11 16.29C18.97 17.29 18.72 17.87 18.29 18.29C17.87 18.72 17.29 18.97 16.28 19.11C15.26 19.24 13.9 19.25 12 19.25L8 19.25C6.09 19.25 4.73 19.24 3.7 19.11C2.7 18.97 2.12 18.72 1.7 18.29C1.27 17.87 1.02 17.29 0.89 16.28C0.75 15.26 0.75 13.9 0.75 12L0.75 10Z" fill="#FFFFFF" fill-opacity="1.000000" fill-rule="evenodd"/>
</svg>
