<svg width="21.000000" height="19.000000" viewBox="0 0 21 19" fill="none" xmlns="http://www.w3.org/2000/svg" xmlns:xlink="http://www.w3.org/1999/xlink">
	<defs/>
	<path id="Vector" d="M19.29 2.88L9.29 12.88C9.19 12.98 9.08 13.05 8.96 13.1C8.84 13.15 8.71 13.18 8.58 13.18C8.45 13.18 8.32 13.15 8.2 13.1C8.08 13.05 7.97 12.98 7.88 12.88L5.05 10.06C4.95 9.96 4.88 9.85 4.83 9.73C4.78 9.61 4.75 9.48 4.75 9.35C4.75 9.22 4.78 9.09 4.83 8.97C4.88 8.85 4.95 8.74 5.05 8.64C5.14 8.55 5.25 8.48 5.37 8.43C5.49 8.38 5.62 8.35 5.75 8.35C5.88 8.35 6.01 8.38 6.13 8.43C6.25 8.48 6.36 8.55 6.45 8.64L8.57 10.77L17.87 1.47C17.96 1.38 18.07 1.31 18.19 1.26C18.31 1.21 18.44 1.18 18.57 1.18C18.7 1.18 18.83 1.21 18.95 1.26C19.07 1.31 19.18 1.38 19.28 1.47C19.68 1.86 19.68 2.5 19.29 2.88ZM13.77 -0.27C12.08 -0.95 10.16 -1.19 8.16 -0.84C4.08 -0.11 0.83 3.17 0.15 7.25C-0.13 8.8 -0.03 10.39 0.43 11.9C0.88 13.4 1.69 14.78 2.78 15.92C3.87 17.05 5.21 17.91 6.7 18.43C8.19 18.95 9.77 19.11 11.34 18.9C15.3 18.39 18.62 15.45 19.66 11.59C20.06 10.12 20.1 8.7 19.87 7.37C19.74 6.58 18.75 6.27 18.17 6.83C17.93 7.07 17.84 7.4 17.9 7.72C18.12 9.06 18.02 10.48 17.37 11.99C16.21 14.7 13.7 16.68 10.77 16.95C5.67 17.42 1.44 13.1 2.06 7.97C2.5 4.43 5.34 1.56 8.88 1.07C10.61 0.83 12.25 1.15 13.65 1.87C13.88 2 14.16 2.02 14.41 1.94C14.66 1.86 14.88 1.69 15 1.45C15.12 1.21 15.15 0.94 15.07 0.68C14.99 0.43 14.81 0.22 14.58 0.09C14.31 -0.03 14.04 -0.16 13.77 -0.27Z" fill="#FFFFFF" fill-opacity="1.000000" fill-rule="nonzero"/>
</svg>
