<svg xmlns="http://www.w3.org/2000/svg" width="32" height="32" viewBox="0 0 32 32" fill="none">
  <path d="M20.1424 0.843087L16.9853 0L14.3248 9.89565L11.9228 0.961791L8.76555 1.80488L11.3608 11.4573L4.8967 5.01518L2.58549 7.31854L9.67576 14.3848L0.845959 12.0269L0 15.1733L9.64767 17.7496C9.53721 17.2748 9.47877 16.7801 9.47877 16.2717C9.47877 12.6737 12.4055 9.75685 16.0159 9.75685C19.6262 9.75685 22.5529 12.6737 22.5529 16.2717C22.5529 16.7768 22.4952 17.2685 22.3861 17.7405L31.1541 20.0818L32 16.9354L22.314 14.3489L31.1444 11.9908L30.2984 8.84437L20.6128 11.4308L27.0768 4.98873L24.7656 2.68538L17.7737 9.65357L20.1424 0.843087Z" fill="#367AFF"/>
  <path d="M22.3776 17.7771C22.1069 18.9176 21.5354 19.9421 20.7513 20.763L27.1033 27.0935L29.4145 24.7901L22.3776 17.7771Z" fill="#367AFF"/>
  <path d="M20.6872 20.8292C19.8936 21.637 18.8907 22.2398 17.7661 22.5504L20.0775 31.1472L23.2346 30.3041L20.6872 20.8292Z" fill="#367AFF"/>
  <path d="M17.6481 22.5818C17.1264 22.7155 16.5795 22.7866 16.0159 22.7866C15.4121 22.7866 14.8273 22.705 14.2723 22.5522L11.9588 31.1569L15.1159 31.9999L17.6481 22.5818Z" fill="#367AFF"/>
  <path d="M14.1607 22.5206C13.0533 22.1945 12.0683 21.584 11.2909 20.7739L4.92328 27.1199L7.23448 29.4233L14.1607 22.5206Z" fill="#367AFF"/>
  <path d="M11.2377 20.7178C10.4737 19.9026 9.91718 18.8917 9.65228 17.7688L0.855713 20.1178L1.70167 23.2642L11.2377 20.7178Z" fill="#367AFF"/>
</svg>